<?xml version="1.0" encoding="UTF-8" standalone="no"?>
<!-- Created with Inkscape (http://www.inkscape.org/) -->

<svg
   version="1.1"
   id="svg1"
   width="1435"
   height="882"
   viewBox="0 0 1435 882"
   sodipodi:docname="todo-list.svg"
   xml:space="preserve"
   inkscape:version="1.3 (0e150ed6c4, 2023-07-21)"
   xmlns:inkscape="http://www.inkscape.org/namespaces/inkscape"
   xmlns:sodipodi="http://sodipodi.sourceforge.net/DTD/sodipodi-0.dtd"
   xmlns="http://www.w3.org/2000/svg"
   xmlns:svg="http://www.w3.org/2000/svg"><defs
     id="defs1"><filter
       style="color-interpolation-filters:sRGB;"
       inkscape:label="Lightness-Contrast"
       id="filter2"
       x="0"
       y="0"
       width="1"
       height="1"><feColorMatrix
         values="11 0 0 -4.31776 -5 0 11 0 -4.31776 -5 0 0 11 -4.31776 -5 0 0 0 1 0"
         id="feColorMatrix2" /></filter></defs><sodipodi:namedview
     id="namedview1"
     pagecolor="#060606"
     bordercolor="#666666"
     borderopacity="1.0"
     inkscape:showpageshadow="2"
     inkscape:pageopacity="0.0"
     inkscape:pagecheckerboard="0"
     inkscape:deskcolor="#d1d1d1"
     showguides="true"
     inkscape:zoom="0.79303136"
     inkscape:cx="527.09139"
     inkscape:cy="334.7913"
     inkscape:window-width="1920"
     inkscape:window-height="1009"
     inkscape:window-x="1912"
     inkscape:window-y="63"
     inkscape:window-maximized="1"
     inkscape:current-layer="g1" /><g
     inkscape:groupmode="layer"
     inkscape:label="Image"
     id="g1"><rect
       style="fill:none;fill-rule:evenodd;stroke:#333333;stroke-width:2;stroke-linejoin:bevel;stroke-dasharray:none;stroke-opacity:1"
       id="rect5"
       width="1368.4606"
       height="142.4987"
       x="33.882717"
       y="102.76272"
       ry="19.61631" /><circle
       style="fill:none;fill-rule:evenodd;stroke:#333333;stroke-width:4.67508;stroke-linejoin:bevel;stroke-dasharray:none;stroke-opacity:1"
       id="path5"
       cx="83.971832"
       cy="174.05571"
       r="16.104509" /><path
       d="m 1213.0439,192.42446 q -1.5403,0 -2.637,-1.09683 -1.0969,-1.09681 -1.0969,-2.63703 v -26.13697 q 0,-1.54021 1.0969,-2.63704 1.0967,-1.09682 2.637,-1.09682 h 1.8669 v -3.73385 h 3.7338 v 3.73385 h 14.9355 v -3.73385 h 3.7337 v 3.73385 h 1.8671 q 1.5401,0 2.637,1.09682 1.0967,1.09683 1.0967,2.63704 v 26.13697 q 0,1.54022 -1.0967,2.63703 -1.0969,1.09683 -2.637,1.09683 z m 0,-3.73386 h 26.137 v -18.66927 h -26.137 z m 0,-22.40312 h 26.137 v -3.73385 h -26.137 z m 0,0 v -3.73385 z m 13.0685,11.20156 q -0.7935,0 -1.3302,-0.53675 -0.5368,-0.53673 -0.5368,-1.33017 0,-0.79345 0.5368,-1.3302 0.5367,-0.53673 1.3302,-0.53673 0.7934,0 1.3302,0.53673 0.5367,0.53675 0.5367,1.3302 0,0.79344 -0.5367,1.33017 -0.5368,0.53675 -1.3302,0.53675 z m -7.4678,0 q -0.7934,0 -1.3301,-0.53675 -0.5368,-0.53673 -0.5368,-1.33017 0,-0.79345 0.5368,-1.3302 0.5367,-0.53673 1.3301,-0.53673 0.7935,0 1.3302,0.53673 0.5368,0.53675 0.5368,1.3302 0,0.79344 -0.5368,1.33017 -0.5367,0.53675 -1.3302,0.53675 z m 14.9355,0 q -0.7935,0 -1.3302,-0.53675 -0.5367,-0.53673 -0.5367,-1.33017 0,-0.79345 0.5367,-1.3302 0.5367,-0.53673 1.3302,-0.53673 0.7933,0 1.3302,0.53673 0.5367,0.53675 0.5367,1.3302 0,0.79344 -0.5367,1.33017 -0.5369,0.53675 -1.3302,0.53675 z m -7.4677,7.46771 q -0.7935,0 -1.3302,-0.53675 -0.5368,-0.53673 -0.5368,-1.33018 0,-0.79344 0.5368,-1.33019 0.5367,-0.53673 1.3302,-0.53673 0.7934,0 1.3302,0.53673 0.5367,0.53675 0.5367,1.33019 0,0.79345 -0.5367,1.33018 -0.5368,0.53675 -1.3302,0.53675 z m -7.4678,0 q -0.7934,0 -1.3301,-0.53675 -0.5368,-0.53673 -0.5368,-1.33018 0,-0.79344 0.5368,-1.33019 0.5367,-0.53673 1.3301,-0.53673 0.7935,0 1.3302,0.53673 0.5368,0.53675 0.5368,1.33019 0,0.79345 -0.5368,1.33018 -0.5367,0.53675 -1.3302,0.53675 z m 14.9355,0 q -0.7935,0 -1.3302,-0.53675 -0.5367,-0.53673 -0.5367,-1.33018 0,-0.79344 0.5367,-1.33019 0.5367,-0.53673 1.3302,-0.53673 0.7933,0 1.3302,0.53673 0.5367,0.53675 0.5367,1.33019 0,0.79345 -0.5367,1.33018 -0.5369,0.53675 -1.3302,0.53675 z"
       id="path1"
       style="stroke-width:0.0466731;stroke:#ff0000;stroke-opacity:1;fill:#333333;fill-opacity:1" /><path
       d="m 1274.6384,188.33257 h 2.8643 l 17.6463,-17.6463 -2.8643,-2.86433 -17.6463,17.6463 z m 29.2571,-20.61293 -8.6953,-8.59297 2.8643,-2.86433 q 1.1764,-1.17642 2.8899,-1.17642 1.7135,0 2.8899,1.17642 l 2.8643,2.86433 q 1.1765,1.17642 1.2276,2.83875 0.052,1.66233 -1.1252,2.83875 z m -2.9666,3.01777 -21.6871,21.68705 h -8.6953 v -8.69527 l 21.6871,-21.68705 z m -7.212,-1.48331 -1.4322,-1.43216 2.8643,2.86433 z"
       id="path1-4"
       style="fill:#333333;fill-opacity:1;stroke-width:0.0511487" /><path
       d="m 1341.6059,192.42446 q -1.7114,0 -2.93,-1.21869 -1.2187,-1.21869 -1.2187,-2.93004 v -26.96672 h -2.0744 v -4.14873 h 10.3718 v -2.07436 h 12.4462 v 2.07436 h 10.3718 v 4.14873 h -2.0743 v 26.96672 q 0,1.71135 -1.2187,2.93004 -1.2187,1.21869 -2.9301,1.21869 z m 20.7436,-31.11545 h -20.7436 v 26.96672 h 20.7436 z m -16.5949,22.818 h 4.1487 v -18.66927 h -4.1487 z m 8.2975,0 h 4.1487 v -18.66927 h -4.1487 z m -12.4462,-22.818 v 26.96672 z"
       id="path1-6"
       style="fill:#333333;fill-opacity:1;stroke-width:0.0518591" /><rect
       style="fill:none;fill-rule:evenodd;stroke:#333333;stroke-width:2;stroke-linejoin:bevel;stroke-dasharray:none;stroke-opacity:1"
       id="rect5-4"
       width="1368.4606"
       height="142.4987"
       x="33.930679"
       y="279.78818"
       ry="19.61631" /><circle
       style="fill:none;fill-rule:evenodd;stroke:#333333;stroke-width:4.67508;stroke-linejoin:bevel;stroke-dasharray:none;stroke-opacity:1"
       id="path5-0"
       cx="84.019791"
       cy="351.08118"
       r="16.104509" /><path
       d="m 1213.0919,369.4499 q -1.5403,0 -2.637,-1.09683 -1.0969,-1.09681 -1.0969,-2.63703 v -26.13697 q 0,-1.54021 1.0969,-2.63704 1.0967,-1.09682 2.637,-1.09682 h 1.8669 v -3.73385 h 3.7338 v 3.73385 h 14.9355 v -3.73385 h 3.7337 v 3.73385 h 1.8671 q 1.5401,0 2.637,1.09682 1.0967,1.09683 1.0967,2.63704 v 26.13697 q 0,1.54022 -1.0967,2.63703 -1.0969,1.09683 -2.637,1.09683 z m 0,-3.73386 h 26.137 v -18.66927 h -26.137 z m 0,-22.40312 h 26.137 v -3.73385 h -26.137 z m 0,0 v -3.73385 z m 13.0685,11.20156 q -0.7935,0 -1.3302,-0.53675 -0.5368,-0.53673 -0.5368,-1.33017 0,-0.79345 0.5368,-1.3302 0.5367,-0.53673 1.3302,-0.53673 0.7934,0 1.3302,0.53673 0.5367,0.53675 0.5367,1.3302 0,0.79344 -0.5367,1.33017 -0.5368,0.53675 -1.3302,0.53675 z m -7.4678,0 q -0.7934,0 -1.3301,-0.53675 -0.5368,-0.53673 -0.5368,-1.33017 0,-0.79345 0.5368,-1.3302 0.5367,-0.53673 1.3301,-0.53673 0.7935,0 1.3302,0.53673 0.5368,0.53675 0.5368,1.3302 0,0.79344 -0.5368,1.33017 -0.5367,0.53675 -1.3302,0.53675 z m 14.9355,0 q -0.7935,0 -1.3302,-0.53675 -0.5367,-0.53673 -0.5367,-1.33017 0,-0.79345 0.5367,-1.3302 0.5367,-0.53673 1.3302,-0.53673 0.7933,0 1.3302,0.53673 0.5367,0.53675 0.5367,1.3302 0,0.79344 -0.5367,1.33017 -0.5369,0.53675 -1.3302,0.53675 z m -7.4677,7.46771 q -0.7935,0 -1.3302,-0.53675 -0.5368,-0.53673 -0.5368,-1.33018 0,-0.79344 0.5368,-1.33019 0.5367,-0.53673 1.3302,-0.53673 0.7934,0 1.3302,0.53673 0.5367,0.53675 0.5367,1.33019 0,0.79345 -0.5367,1.33018 -0.5368,0.53675 -1.3302,0.53675 z m -7.4678,0 q -0.7934,0 -1.3301,-0.53675 -0.5368,-0.53673 -0.5368,-1.33018 0,-0.79344 0.5368,-1.33019 0.5367,-0.53673 1.3301,-0.53673 0.7935,0 1.3302,0.53673 0.5368,0.53675 0.5368,1.33019 0,0.79345 -0.5368,1.33018 -0.5367,0.53675 -1.3302,0.53675 z m 14.9355,0 q -0.7935,0 -1.3302,-0.53675 -0.5367,-0.53673 -0.5367,-1.33018 0,-0.79344 0.5367,-1.33019 0.5367,-0.53673 1.3302,-0.53673 0.7933,0 1.3302,0.53673 0.5367,0.53675 0.5367,1.33019 0,0.79345 -0.5367,1.33018 -0.5369,0.53675 -1.3302,0.53675 z"
       id="path1-0"
       style="fill:#333333;fill-opacity:1;stroke:#ff0000;stroke-width:0.0466731;stroke-opacity:1" /><path
       d="m 1274.6864,365.35801 h 2.8643 l 17.6463,-17.6463 -2.8643,-2.86433 -17.6463,17.6463 z m 29.2571,-20.61293 -8.6953,-8.59297 2.8643,-2.86433 q 1.1764,-1.17642 2.8899,-1.17642 1.7135,0 2.8899,1.17642 l 2.8643,2.86433 q 1.1765,1.17642 1.2276,2.83875 0.052,1.66233 -1.1252,2.83875 z m -2.9666,3.01777 -21.6871,21.68705 h -8.6953 v -8.69527 l 21.6871,-21.68705 z m -7.212,-1.48331 -1.4322,-1.43216 2.8643,2.86433 z"
       id="path1-4-3"
       style="fill:#333333;fill-opacity:1;stroke-width:0.0511487" /><path
       d="m 1341.6539,369.4499 q -1.7114,0 -2.93,-1.21869 -1.2187,-1.21869 -1.2187,-2.93004 v -26.96672 h -2.0744 v -4.14873 h 10.3718 v -2.07436 h 12.4462 v 2.07436 h 10.3718 v 4.14873 h -2.0743 v 26.96672 q 0,1.71135 -1.2187,2.93004 -1.2187,1.21869 -2.9301,1.21869 z m 20.7436,-31.11545 h -20.7436 v 26.96672 h 20.7436 z m -16.5949,22.818 h 4.1487 v -18.66927 h -4.1487 z m 8.2975,0 h 4.1487 v -18.66927 h -4.1487 z m -12.4462,-22.818 v 26.96672 z"
       id="path1-6-1"
       style="fill:#333333;fill-opacity:1;stroke-width:0.0518591" /><rect
       style="fill:none;fill-rule:evenodd;stroke:#333333;stroke-width:2;stroke-linejoin:bevel;stroke-dasharray:none;stroke-opacity:1"
       id="rect5-4-5"
       width="1368.4606"
       height="142.4987"
       x="33.930679"
       y="456.77844"
       ry="19.61631" /><circle
       style="fill:none;fill-rule:evenodd;stroke:#333333;stroke-width:4.67508;stroke-linejoin:bevel;stroke-dasharray:none;stroke-opacity:1"
       id="path5-0-8"
       cx="84.019791"
       cy="528.07141"
       r="16.104509" /><path
       d="m 1213.0919,546.44017 q -1.5403,0 -2.637,-1.09683 -1.0969,-1.09681 -1.0969,-2.63703 v -26.13697 q 0,-1.54021 1.0969,-2.63704 1.0967,-1.09682 2.637,-1.09682 h 1.8669 v -3.73385 h 3.7338 v 3.73385 h 14.9355 v -3.73385 h 3.7337 v 3.73385 h 1.8671 q 1.5401,0 2.637,1.09682 1.0967,1.09683 1.0967,2.63704 v 26.13697 q 0,1.54022 -1.0967,2.63703 -1.0969,1.09683 -2.637,1.09683 z m 0,-3.73386 h 26.137 v -18.66927 h -26.137 z m 0,-22.40312 h 26.137 v -3.73385 h -26.137 z m 0,0 v -3.73385 z m 13.0685,11.20156 q -0.7935,0 -1.3302,-0.53675 -0.5368,-0.53673 -0.5368,-1.33017 0,-0.79345 0.5368,-1.3302 0.5367,-0.53673 1.3302,-0.53673 0.7934,0 1.3302,0.53673 0.5367,0.53675 0.5367,1.3302 0,0.79344 -0.5367,1.33017 -0.5368,0.53675 -1.3302,0.53675 z m -7.4678,0 q -0.7934,0 -1.3301,-0.53675 -0.5368,-0.53673 -0.5368,-1.33017 0,-0.79345 0.5368,-1.3302 0.5367,-0.53673 1.3301,-0.53673 0.7935,0 1.3302,0.53673 0.5368,0.53675 0.5368,1.3302 0,0.79344 -0.5368,1.33017 -0.5367,0.53675 -1.3302,0.53675 z m 14.9355,0 q -0.7935,0 -1.3302,-0.53675 -0.5367,-0.53673 -0.5367,-1.33017 0,-0.79345 0.5367,-1.3302 0.5367,-0.53673 1.3302,-0.53673 0.7933,0 1.3302,0.53673 0.5367,0.53675 0.5367,1.3302 0,0.79344 -0.5367,1.33017 -0.5369,0.53675 -1.3302,0.53675 z m -7.4677,7.46771 q -0.7935,0 -1.3302,-0.53675 -0.5368,-0.53673 -0.5368,-1.33018 0,-0.79344 0.5368,-1.33019 0.5367,-0.53673 1.3302,-0.53673 0.7934,0 1.3302,0.53673 0.5367,0.53675 0.5367,1.33019 0,0.79345 -0.5367,1.33018 -0.5368,0.53675 -1.3302,0.53675 z m -7.4678,0 q -0.7934,0 -1.3301,-0.53675 -0.5368,-0.53673 -0.5368,-1.33018 0,-0.79344 0.5368,-1.33019 0.5367,-0.53673 1.3301,-0.53673 0.7935,0 1.3302,0.53673 0.5368,0.53675 0.5368,1.33019 0,0.79345 -0.5368,1.33018 -0.5367,0.53675 -1.3302,0.53675 z m 14.9355,0 q -0.7935,0 -1.3302,-0.53675 -0.5367,-0.53673 -0.5367,-1.33018 0,-0.79344 0.5367,-1.33019 0.5367,-0.53673 1.3302,-0.53673 0.7933,0 1.3302,0.53673 0.5367,0.53675 0.5367,1.33019 0,0.79345 -0.5367,1.33018 -0.5369,0.53675 -1.3302,0.53675 z"
       id="path1-0-8"
       style="fill:#333333;fill-opacity:1;stroke:#ff0000;stroke-width:0.0466731;stroke-opacity:1" /><path
       d="m 1274.6864,542.34828 h 2.8643 l 17.6463,-17.6463 -2.8643,-2.86433 -17.6463,17.6463 z m 29.2571,-20.61293 -8.6953,-8.59297 2.8643,-2.86433 q 1.1764,-1.17642 2.8899,-1.17642 1.7135,0 2.8899,1.17642 l 2.8643,2.86433 q 1.1765,1.17642 1.2276,2.83875 0.052,1.66233 -1.1252,2.83875 z m -2.9666,3.01777 -21.6871,21.68705 h -8.6953 v -8.69527 l 21.6871,-21.68705 z m -7.212,-1.48331 -1.4322,-1.43216 2.8643,2.86433 z"
       id="path1-4-3-2"
       style="fill:#333333;fill-opacity:1;stroke-width:0.0511487" /><path
       d="m 1341.6539,546.44017 q -1.7114,0 -2.93,-1.21869 -1.2187,-1.21869 -1.2187,-2.93004 v -26.96672 h -2.0744 v -4.14873 h 10.3718 v -2.07436 h 12.4462 v 2.07436 h 10.3718 v 4.14873 h -2.0743 v 26.96672 q 0,1.71135 -1.2187,2.93004 -1.2187,1.21869 -2.9301,1.21869 z m 20.7436,-31.11545 h -20.7436 v 26.96672 h 20.7436 z m -16.5949,22.818 h 4.1487 v -18.66927 h -4.1487 z m 8.2975,0 h 4.1487 v -18.66927 h -4.1487 z m -12.4462,-22.818 v 26.96672 z"
       id="path1-6-1-2"
       style="fill:#333333;fill-opacity:1;stroke-width:0.0518591" /><rect
       style="fill:none;fill-rule:evenodd;stroke:#333333;stroke-width:2;stroke-linejoin:bevel;stroke-dasharray:none;stroke-opacity:1"
       id="rect5-4-5-1"
       width="1368.4606"
       height="142.4987"
       x="35.045292"
       y="633.7204"
       ry="19.61631" /><circle
       style="fill:none;fill-rule:evenodd;stroke:#333333;stroke-width:4.67508;stroke-linejoin:bevel;stroke-dasharray:none;stroke-opacity:1"
       id="path5-0-8-6"
       cx="85.134399"
       cy="705.01337"
       r="16.104509" /><path
       d="m 1214.2065,723.38216 q -1.5403,0 -2.637,-1.09683 -1.0969,-1.09681 -1.0969,-2.63703 v -26.13697 q 0,-1.54021 1.0969,-2.63704 1.0967,-1.09682 2.637,-1.09682 h 1.8669 v -3.73385 h 3.7338 v 3.73385 h 14.9355 v -3.73385 h 3.7337 v 3.73385 h 1.8671 q 1.5401,0 2.637,1.09682 1.0967,1.09683 1.0967,2.63704 v 26.13697 q 0,1.54022 -1.0967,2.63703 -1.0969,1.09683 -2.637,1.09683 z m 0,-3.73386 h 26.137 v -18.66927 h -26.137 z m 0,-22.40312 h 26.137 v -3.73385 h -26.137 z m 0,0 v -3.73385 z m 13.0685,11.20156 q -0.7935,0 -1.3302,-0.53675 -0.5368,-0.53673 -0.5368,-1.33017 0,-0.79345 0.5368,-1.3302 0.5367,-0.53673 1.3302,-0.53673 0.7934,0 1.3302,0.53673 0.5367,0.53675 0.5367,1.3302 0,0.79344 -0.5367,1.33017 -0.5368,0.53675 -1.3302,0.53675 z m -7.4678,0 q -0.7934,0 -1.3301,-0.53675 -0.5368,-0.53673 -0.5368,-1.33017 0,-0.79345 0.5368,-1.3302 0.5367,-0.53673 1.3301,-0.53673 0.7935,0 1.3302,0.53673 0.5368,0.53675 0.5368,1.3302 0,0.79344 -0.5368,1.33017 -0.5367,0.53675 -1.3302,0.53675 z m 14.9355,0 q -0.7935,0 -1.3302,-0.53675 -0.5367,-0.53673 -0.5367,-1.33017 0,-0.79345 0.5367,-1.3302 0.5367,-0.53673 1.3302,-0.53673 0.7933,0 1.3302,0.53673 0.5367,0.53675 0.5367,1.3302 0,0.79344 -0.5367,1.33017 -0.5369,0.53675 -1.3302,0.53675 z m -7.4677,7.46771 q -0.7935,0 -1.3302,-0.53675 -0.5368,-0.53673 -0.5368,-1.33018 0,-0.79344 0.5368,-1.33019 0.5367,-0.53673 1.3302,-0.53673 0.7934,0 1.3302,0.53673 0.5367,0.53675 0.5367,1.33019 0,0.79345 -0.5367,1.33018 -0.5368,0.53675 -1.3302,0.53675 z m -7.4678,0 q -0.7934,0 -1.3301,-0.53675 -0.5368,-0.53673 -0.5368,-1.33018 0,-0.79344 0.5368,-1.33019 0.5367,-0.53673 1.3301,-0.53673 0.7935,0 1.3302,0.53673 0.5368,0.53675 0.5368,1.33019 0,0.79345 -0.5368,1.33018 -0.5367,0.53675 -1.3302,0.53675 z m 14.9355,0 q -0.7935,0 -1.3302,-0.53675 -0.5367,-0.53673 -0.5367,-1.33018 0,-0.79344 0.5367,-1.33019 0.5367,-0.53673 1.3302,-0.53673 0.7933,0 1.3302,0.53673 0.5367,0.53675 0.5367,1.33019 0,0.79345 -0.5367,1.33018 -0.5369,0.53675 -1.3302,0.53675 z"
       id="path1-0-8-8"
       style="fill:#333333;fill-opacity:1;stroke:#ff0000;stroke-width:0.0466731;stroke-opacity:1" /><path
       d="m 1275.801,719.29027 h 2.8643 l 17.6463,-17.6463 -2.8643,-2.86433 -17.6463,17.6463 z m 29.2571,-20.61293 -8.6953,-8.59297 2.8643,-2.86433 q 1.1764,-1.17642 2.8899,-1.17642 1.7135,0 2.8899,1.17642 l 2.8643,2.86433 q 1.1765,1.17642 1.2276,2.83875 0.052,1.66233 -1.1252,2.83875 z m -2.9666,3.01777 -21.6871,21.68705 h -8.6953 v -8.69527 l 21.6871,-21.68705 z m -7.212,-1.48331 -1.4322,-1.43216 2.8643,2.86433 z"
       id="path1-4-3-2-3"
       style="fill:#333333;fill-opacity:1;stroke-width:0.0511487" /><path
       d="m 1342.7685,723.38216 q -1.7114,0 -2.93,-1.21869 -1.2187,-1.21869 -1.2187,-2.93004 v -26.96672 h -2.0744 v -4.14873 h 10.3718 v -2.07436 h 12.4462 v 2.07436 h 10.3718 v 4.14873 h -2.0743 v 26.96672 q 0,1.71135 -1.2187,2.93004 -1.2187,1.21869 -2.9301,1.21869 z m 20.7436,-31.11545 h -20.7436 v 26.96672 h 20.7436 z m -16.5949,22.818 h 4.1487 v -18.66927 h -4.1487 z m 8.2975,0 h 4.1487 v -18.66927 h -4.1487 z m -12.4462,-22.818 v 26.96672 z"
       id="path1-6-1-2-4"
       style="fill:#333333;fill-opacity:1;stroke-width:0.0518591" /><path
       style="fill:none;stroke:#333333;stroke-width:2;stroke-linecap:butt;stroke-linejoin:miter;stroke-opacity:1;stroke-dasharray:none"
       d="M 0,67.737572 H 1435"
       id="path16" /></g></svg>
